<?xml version="1.0" standalone="no"?><svg xmlns="http://www.w3.org/2000/svg" viewBox="0 0 1440 320"><path fill="#e4aec4" fill-opacity="1" d="M0,128L21.8,117.3C43.6,107,87,85,131,85.3C174.5,85,218,107,262,122.7C305.5,139,349,149,393,138.7C436.4,128,480,96,524,85.3C567.3,75,611,85,655,122.7C698.2,160,742,224,785,208C829.1,192,873,96,916,74.7C960,53,1004,107,1047,122.7C1090.9,139,1135,117,1178,138.7C1221.8,160,1265,224,1309,218.7C1352.7,213,1396,139,1418,101.3L1440,64L1440,0L1418.2,0C1396.4,0,1353,0,1309,0C1265.5,0,1222,0,1178,0C1134.5,0,1091,0,1047,0C1003.6,0,960,0,916,0C872.7,0,829,0,785,0C741.8,0,698,0,655,0C610.9,0,567,0,524,0C480,0,436,0,393,0C349.1,0,305,0,262,0C218.2,0,175,0,131,0C87.3,0,44,0,22,0L0,0Z"></path></svg>